<svg id="Layer_1" data-name="Layer 1" xmlns="http://www.w3.org/2000/svg" viewBox="0 0 1200 492"><defs><style>.cls-1{fill:#c4c4c4;}</style></defs><path d="M31.68,125a3.46,3.46,0,0,1-3.6-3.6V27.8a3.5,3.5,0,0,1,1-2.59,3.84,3.84,0,0,1,2.59-1H97.92a3.46,3.46,0,0,1,3.6,3.6V42.34a3.87,3.87,0,0,1-1,2.6,3.5,3.5,0,0,1-2.59,1H53.42V67.11H95a3.3,3.3,0,0,1,2.59,1.15,3.54,3.54,0,0,1,1,2.6v14.4a3.84,3.84,0,0,1-1,2.59,3.5,3.5,0,0,1-2.59,1H53.42V121.4a3.5,3.5,0,0,1-1,2.59,3.54,3.54,0,0,1-2.6,1Zm117,1.44q-17.26,0-27.21-9.36T111.08,89.86v-5q.57-17,10.51-26.49t26.93-9.65q12.24,0,20.59,5a30.81,30.81,0,0,1,12.68,13.54,44,44,0,0,1,4.31,19.87v3.45a3.86,3.86,0,0,1-1,2.6,3.51,3.51,0,0,1-2.59,1H136.43v1q.28,6.77,3.31,11a10.16,10.16,0,0,0,8.78,4.17,11,11,0,0,0,5.91-1.44,22,22,0,0,0,4.17-3.74,6.35,6.35,0,0,1,2-1.87,6,6,0,0,1,2.59-.44h17.86a2.93,2.93,0,0,1,2.16.87,2.33,2.33,0,0,1,1,2q0,3.75-4.32,8.64-4.17,4.91-12.24,8.5A46.29,46.29,0,0,1,148.66,126.44Zm12.1-46.51v-.29q0-7-3.31-11.09a10.56,10.56,0,0,0-8.93-4.17,10.82,10.82,0,0,0-8.93,4.17q-3.17,4-3.16,11.09v.29Zm69.66,46.51q-11.65,0-19.58-3.31t-11.52-7.92q-3.75-4.6-3.75-8.21a2.87,2.87,0,0,1,1-2.3,3.63,3.63,0,0,1,2.45-1h16.42a2.2,2.2,0,0,1,1.58.72c1.15.77,2,1.39,2.59,1.87a40.61,40.61,0,0,0,5.47,3.46,15.58,15.58,0,0,0,5.91,1,12.77,12.77,0,0,0,6.76-1.58,5.35,5.35,0,0,0,2.74-4.75,5.26,5.26,0,0,0-1.44-3.89q-1.29-1.44-5.18-2.74a84.8,84.8,0,0,0-11.81-3q-12-2.45-18.43-7.92t-6.34-15A19.26,19.26,0,0,1,201,60.63,26.47,26.47,0,0,1,212.13,52a43.54,43.54,0,0,1,17.72-3.31,46.38,46.38,0,0,1,17.85,3.17q7.63,3.16,11.52,7.77t4,8.21a3.16,3.16,0,0,1-1,2.31,2.71,2.71,0,0,1-2.16,1h-15a3.64,3.64,0,0,1-2.16-.72,21.52,21.52,0,0,1-3.31-2.16A26.28,26.28,0,0,0,235,65.38a12.61,12.61,0,0,0-5.33-1,9.86,9.86,0,0,0-6,1.72,5.47,5.47,0,0,0-2.16,4.47,5.57,5.57,0,0,0,1.16,3.6q1.29,1.44,5.18,2.88a102.84,102.84,0,0,0,11.81,2.73q14,2.46,20.3,8.64A19.5,19.5,0,0,1,266.42,103q0,10.65-9.5,17.13T230.42,126.44ZM317.08,125q-29.81,0-29.81-28.37V69H276a4,4,0,0,1-2.74-1,3.54,3.54,0,0,1-1-2.6V53.72a3.5,3.5,0,0,1,1-2.59,4,4,0,0,1,2.74-1h11.23V26.36a3.5,3.5,0,0,1,1-2.59,3.84,3.84,0,0,1,2.59-1h16.71a3.46,3.46,0,0,1,3.6,3.6V50.12h18a3.52,3.52,0,0,1,2.59,1,3.27,3.27,0,0,1,1.15,2.59V65.38a3.3,3.3,0,0,1-1.15,2.6,3.51,3.51,0,0,1-2.59,1h-18V94.62q0,10.65,8.21,10.65h11.08a3.44,3.44,0,0,1,3.6,3.6V121.4a3.83,3.83,0,0,1-1,2.59,3.54,3.54,0,0,1-2.6,1Zm32.37-85.68a3.46,3.46,0,0,1-3.6-3.6v-13a3.46,3.46,0,0,1,3.6-3.6h17.28a3.5,3.5,0,0,1,2.59,1,3.47,3.47,0,0,1,1,2.59v13a3.47,3.47,0,0,1-1,2.59,3.5,3.5,0,0,1-2.59,1ZM349.6,125a3.54,3.54,0,0,1-2.6-1,3.5,3.5,0,0,1-1-2.59V53.72a3.5,3.5,0,0,1,1-2.59,3.54,3.54,0,0,1,2.6-1h17a3.46,3.46,0,0,1,3.6,3.6V121.4a3.84,3.84,0,0,1-1,2.59,3.52,3.52,0,0,1-2.59,1Zm64.24,0a5.21,5.21,0,0,1-3.17-.86,8.54,8.54,0,0,1-1.73-2.74L381.73,54.58l-.29-1.29a2.93,2.93,0,0,1,.86-2.16,3.36,3.36,0,0,1,2.45-1H401a4,4,0,0,1,4.18,3l16.27,44.21,16.42-44.21a4,4,0,0,1,4.17-3h16.27a3.18,3.18,0,0,1,2.31,1,2.72,2.72,0,0,1,1,2.16l-.29,1.29L434.14,121.4a7.35,7.35,0,0,1-1.87,2.74,5.21,5.21,0,0,1-3.17.86Zm78.09,1.44a33.35,33.35,0,0,1-14-2.88,25.5,25.5,0,0,1-9.79-8.06,20.06,20.06,0,0,1-3.46-11.38,19,19,0,0,1,8.07-16q8.21-6.06,22.46-8.36l18-2.73V75c0-3.65-.77-6.33-2.3-8.06s-4.13-2.59-7.78-2.59a11.52,11.52,0,0,0-5.47,1.15,23.73,23.73,0,0,0-4.46,3.17,23,23,0,0,1-3,2.3,1.58,1.58,0,0,1-1.58,1.15h-15.7a3.66,3.66,0,0,1-2.45-.86,3,3,0,0,1-.72-2.31q.15-3.89,3.75-8.64t11.23-8.2q7.63-3.47,18.72-3.46,17.71,0,26.21,7.92,8.49,7.77,8.49,21V121.4a3.83,3.83,0,0,1-1,2.59,3.54,3.54,0,0,1-2.6,1h-16.7a3.46,3.46,0,0,1-3.6-3.6v-5a23.55,23.55,0,0,1-8.93,7.34A30.21,30.21,0,0,1,491.93,126.44ZM498.7,110a13.87,13.87,0,0,0,10.65-4.32q4.18-4.32,4.18-12.67V91l-12.24,2.16q-13,2.29-13,9.07a6.75,6.75,0,0,0,3,5.76A13,13,0,0,0,498.7,110ZM558,125a3.46,3.46,0,0,1-3.6-3.6v-95a3.5,3.5,0,0,1,1-2.59,3.84,3.84,0,0,1,2.59-1h17a3.54,3.54,0,0,1,2.6,1,3.5,3.5,0,0,1,1,2.59v95a3.5,3.5,0,0,1-1,2.59,3.54,3.54,0,0,1-2.6,1Z"/><path d="M640.68,466a3.46,3.46,0,0,1-3.6-3.6V368.8a3.5,3.5,0,0,1,1-2.59,3.84,3.84,0,0,1,2.59-1h66.24a3.46,3.46,0,0,1,3.6,3.6v14.54a3.87,3.87,0,0,1-1,2.6,3.5,3.5,0,0,1-2.59,1h-44.5v21.17H704a3.3,3.3,0,0,1,2.59,1.15,3.54,3.54,0,0,1,1,2.6v14.4a3.84,3.84,0,0,1-1,2.59,3.5,3.5,0,0,1-2.59,1H662.42V462.4a3.5,3.5,0,0,1-1,2.59,3.54,3.54,0,0,1-2.6,1ZM728,380.32a3.5,3.5,0,0,1-2.59-1,3.47,3.47,0,0,1-1-2.59v-13a3.47,3.47,0,0,1,1-2.59,3.5,3.5,0,0,1,2.59-1h17.28a3.46,3.46,0,0,1,3.6,3.6v13a3.46,3.46,0,0,1-3.6,3.6Zm.14,85.68a3.46,3.46,0,0,1-3.6-3.6V394.72a3.46,3.46,0,0,1,3.6-3.6h17a3.54,3.54,0,0,1,2.6,1,3.5,3.5,0,0,1,1,2.59V462.4a3.83,3.83,0,0,1-1,2.59,3.54,3.54,0,0,1-2.6,1Zm41.21,0a3.54,3.54,0,0,1-2.6-1,3.5,3.5,0,0,1-1-2.59V394.72a3.5,3.5,0,0,1,1-2.59,3.54,3.54,0,0,1,2.6-1h16.56a3.54,3.54,0,0,1,2.59,1,3.3,3.3,0,0,1,1.15,2.59v5.47a28.31,28.31,0,0,1,9.93-7.63,32.77,32.77,0,0,1,14-2.88q12.68,0,20.59,8.64t7.92,23.9V462.4a3.83,3.83,0,0,1-1,2.59,3.54,3.54,0,0,1-2.6,1H820.29a3.46,3.46,0,0,1-3.6-3.6V423.09q0-6.76-3.31-10.37t-9.5-3.74q-6.06,0-9.51,3.74t-3.46,10.37V462.4a3.83,3.83,0,0,1-1,2.59,3.54,3.54,0,0,1-2.59,1Zm116.86,1.44q-14.11,0-22-8.78-7.77-8.94-8.5-25.06l-.14-5,.14-5.18q.58-15.56,8.5-24.63,8.07-9.08,22-9.07,13.11,0,21.17,8.5V367.36a3.46,3.46,0,0,1,3.6-3.6h17.57a3.46,3.46,0,0,1,3.6,3.6v95a3.84,3.84,0,0,1-1,2.59,3.52,3.52,0,0,1-2.59,1H912.25a3.44,3.44,0,0,1-3.6-3.6v-4.61Q900.73,467.44,886.18,467.44Zm7.92-19.3q6.48,0,9.65-4a19.35,19.35,0,0,0,3.6-10.65c.1-1.25.14-3.08.14-5.48s0-4.08-.14-5.32a15.83,15.83,0,0,0-3.6-9.8Q900.44,409,894.1,409q-6.76,0-9.79,4T881,424.1c-.1,1-.15,2.44-.15,4.46s0,3.5.15,4.46q.43,7.07,3.31,11.09Q887.34,448.15,894.1,448.14Zm89.55,19.3q-17.28,0-27.22-9.36t-10.36-27.22v-5q.57-17,10.51-26.49t26.93-9.65q12.24,0,20.59,5a30.79,30.79,0,0,1,12.67,13.54,43.85,43.85,0,0,1,4.32,19.87v3.45a3.87,3.87,0,0,1-1,2.6,3.5,3.5,0,0,1-2.59,1H971.41v1q.29,6.76,3.31,10.95a10.19,10.19,0,0,0,8.79,4.17,11,11,0,0,0,5.9-1.44,21.76,21.76,0,0,0,4.18-3.74,6.35,6.35,0,0,1,2-1.87,6,6,0,0,1,2.59-.44h17.86a2.93,2.93,0,0,1,2.16.87,2.34,2.34,0,0,1,1,2q0,3.75-4.32,8.64t-12.24,8.5A46.32,46.32,0,0,1,983.65,467.44Zm12.1-46.51v-.29q0-7-3.32-11.09a10.54,10.54,0,0,0-8.92-4.17,10.8,10.8,0,0,0-8.93,4.17q-3.17,4-3.17,11.09v.29ZM1038.19,466a3.46,3.46,0,0,1-3.6-3.6V394.72a3.46,3.46,0,0,1,3.6-3.6h16.56a3.27,3.27,0,0,1,2.59,1.15,3.13,3.13,0,0,1,1.15,2.45v5.76q7.92-9.36,21.32-9.36h6.33a3.5,3.5,0,0,1,2.59,1,3.47,3.47,0,0,1,1,2.59v14.83a3.78,3.78,0,0,1-1,2.59,3.47,3.47,0,0,1-2.59,1h-14q-5.89,0-9.21,3.31t-3.17,9.08V462.4a3.27,3.27,0,0,1-1.15,2.59,3.52,3.52,0,0,1-2.59,1Zm92.61,1.44q-11.67,0-19.59-3.31-7.77-3.31-11.52-7.92T1096,448a2.84,2.84,0,0,1,1-2.3,3.61,3.61,0,0,1,2.44-1h16.42a2.19,2.19,0,0,1,1.58.72c1.16.77,2,1.39,2.6,1.87a40,40,0,0,0,5.47,3.46,15.52,15.52,0,0,0,5.9,1,12.8,12.8,0,0,0,6.77-1.58,5.37,5.37,0,0,0,2.74-4.75,5.26,5.26,0,0,0-1.44-3.89q-1.31-1.44-5.19-2.74a84.8,84.8,0,0,0-11.81-3q-11.94-2.44-18.43-7.92-6.33-5.61-6.33-15a19.19,19.19,0,0,1,3.74-11.23,26.41,26.41,0,0,1,11.09-8.64,43.46,43.46,0,0,1,17.71-3.31,46.39,46.39,0,0,1,17.86,3.17q7.62,3.16,11.52,7.77t4,8.21a3.2,3.2,0,0,1-1,2.31,2.74,2.74,0,0,1-2.16,1h-15a3.68,3.68,0,0,1-2.16-.72,22,22,0,0,1-3.31-2.16,26.28,26.28,0,0,0-4.61-2.88,12.57,12.57,0,0,0-5.32-1,9.82,9.82,0,0,0-6,1.72,5.47,5.47,0,0,0-2.16,4.47,5.57,5.57,0,0,0,1.15,3.6q1.29,1.44,5.18,2.88a103.36,103.36,0,0,0,11.81,2.73q14,2.46,20.31,8.64A19.5,19.5,0,0,1,1166.8,444q0,10.65-9.51,17.13T1130.8,467.44Z"/><rect class="cls-1" y="152" width="612" height="340"/><rect class="cls-1" x="611" width="589" height="345"/></svg>