<svg width="551" height="108" viewBox="0 0 551 108" fill="none" xmlns="http://www.w3.org/2000/svg">
<path d="M3.68 106C2.72 106 1.856 105.664 1.088 104.992C0.416 104.224 0.08 103.36 0.08 102.4V8.8C0.08 7.74399 0.416 6.87999 1.088 6.208C1.856 5.53599 2.72 5.19999 3.68 5.19999H69.92C70.976 5.19999 71.84 5.53599 72.512 6.208C73.184 6.87999 73.52 7.74399 73.52 8.8V23.344C73.52 24.304 73.184 25.168 72.512 25.936C71.84 26.608 70.976 26.944 69.92 26.944H25.424V48.112H67.04C68.096 48.112 68.96 48.496 69.632 49.264C70.304 49.936 70.64 50.8 70.64 51.856V66.256C70.64 67.216 70.304 68.08 69.632 68.848C68.96 69.52 68.096 69.856 67.04 69.856H25.424V102.4C25.424 103.456 25.088 104.32 24.416 104.992C23.744 105.664 22.88 106 21.824 106H3.68ZM120.665 107.44C109.145 107.44 100.073 104.32 93.4494 98.08C86.8254 91.84 83.3694 82.768 83.0814 70.864V65.824C83.4654 54.496 86.9694 45.664 93.5934 39.328C100.313 32.896 109.289 29.68 120.521 29.68C128.681 29.68 135.545 31.36 141.113 34.72C146.777 37.984 151.001 42.496 153.785 48.256C156.665 54.016 158.105 60.64 158.105 68.128V71.584C158.105 72.544 157.769 73.408 157.097 74.176C156.425 74.848 155.561 75.184 154.505 75.184H108.425V76.192C108.617 80.704 109.721 84.352 111.737 87.136C113.753 89.92 116.681 91.312 120.521 91.312C122.921 91.312 124.889 90.832 126.425 89.872C127.961 88.816 129.353 87.568 130.601 86.128C131.465 85.072 132.137 84.448 132.617 84.256C133.193 83.968 134.057 83.824 135.209 83.824H153.065C153.929 83.824 154.649 84.112 155.225 84.688C155.897 85.168 156.233 85.84 156.233 86.704C156.233 89.2 154.793 92.08 151.913 95.344C149.129 98.608 145.049 101.44 139.673 103.84C134.297 106.24 127.961 107.44 120.665 107.44ZM132.761 60.928V60.64C132.761 55.936 131.657 52.24 129.449 49.552C127.337 46.768 124.361 45.376 120.521 45.376C116.777 45.376 113.801 46.768 111.593 49.552C109.481 52.24 108.425 55.936 108.425 60.64V60.928H132.761ZM202.421 107.44C194.645 107.44 188.117 106.336 182.837 104.128C177.653 101.92 173.813 99.28 171.317 96.208C168.821 93.136 167.573 90.4 167.573 88C167.573 87.04 167.909 86.272 168.581 85.696C169.349 85.024 170.165 84.688 171.029 84.688H187.445C188.021 84.688 188.549 84.928 189.029 85.408C190.181 86.176 191.045 86.8 191.621 87.28C193.733 88.816 195.557 89.968 197.093 90.736C198.725 91.408 200.693 91.744 202.997 91.744C205.781 91.744 208.037 91.216 209.765 90.16C211.589 89.008 212.501 87.424 212.501 85.408C212.501 83.776 212.021 82.48 211.061 81.52C210.197 80.56 208.469 79.648 205.877 78.784C203.285 77.824 199.349 76.816 194.069 75.76C186.101 74.128 179.957 71.488 175.637 67.84C171.413 64.096 169.301 59.104 169.301 52.864C169.301 48.928 170.549 45.184 173.045 41.632C175.541 38.08 179.237 35.2 184.133 32.992C189.125 30.784 195.029 29.68 201.845 29.68C208.661 29.68 214.613 30.736 219.701 32.848C224.789 34.96 228.629 37.552 231.221 40.624C233.909 43.6 235.253 46.336 235.253 48.832C235.253 49.696 234.917 50.464 234.245 51.136C233.669 51.808 232.949 52.144 232.085 52.144H217.109C216.341 52.144 215.621 51.904 214.949 51.424C213.701 50.752 212.597 50.032 211.637 49.264C210.005 48.016 208.469 47.056 207.029 46.384C205.589 45.712 203.813 45.376 201.701 45.376C199.205 45.376 197.189 45.952 195.653 47.104C194.213 48.256 193.493 49.744 193.493 51.568C193.493 53.008 193.877 54.208 194.645 55.168C195.509 56.128 197.237 57.088 199.829 58.048C202.517 58.912 206.453 59.824 211.637 60.784C220.949 62.416 227.717 65.296 231.941 69.424C236.261 73.552 238.421 78.4 238.421 83.968C238.421 91.072 235.253 96.784 228.917 101.104C222.581 105.328 213.749 107.44 202.421 107.44ZM289.081 106C269.209 106 259.273 96.544 259.273 77.632V49.984H248.041C246.985 49.984 246.073 49.648 245.305 48.976C244.633 48.304 244.297 47.44 244.297 46.384V34.72C244.297 33.664 244.633 32.8 245.305 32.128C246.073 31.456 246.985 31.12 248.041 31.12H259.273V7.35999C259.273 6.30399 259.609 5.44 260.281 4.768C261.049 4.096 261.913 3.75999 262.873 3.75999H279.577C280.633 3.75999 281.497 4.096 282.169 4.768C282.841 5.44 283.177 6.30399 283.177 7.35999V31.12H301.177C302.233 31.12 303.097 31.456 303.769 32.128C304.537 32.8 304.921 33.664 304.921 34.72V46.384C304.921 47.44 304.537 48.304 303.769 48.976C303.097 49.648 302.233 49.984 301.177 49.984H283.177V75.616C283.177 82.72 285.913 86.272 291.385 86.272H302.473C303.529 86.272 304.393 86.608 305.065 87.28C305.737 87.952 306.073 88.816 306.073 89.872V102.4C306.073 103.36 305.737 104.224 305.065 104.992C304.393 105.664 303.529 106 302.473 106H289.081ZM321.452 20.32C320.396 20.32 319.532 19.984 318.86 19.312C318.188 18.64 317.852 17.776 317.852 16.72V3.75999C317.852 2.704 318.188 1.84 318.86 1.16799C319.532 0.495996 320.396 0.159998 321.452 0.159998H338.732C339.788 0.159998 340.652 0.495996 341.324 1.16799C341.996 1.84 342.332 2.704 342.332 3.75999V16.72C342.332 17.776 341.996 18.64 341.324 19.312C340.652 19.984 339.788 20.32 338.732 20.32H321.452ZM321.596 106C320.54 106 319.676 105.664 319.004 104.992C318.332 104.32 317.996 103.456 317.996 102.4V34.72C317.996 33.664 318.332 32.8 319.004 32.128C319.676 31.456 320.54 31.12 321.596 31.12H338.588C339.644 31.12 340.508 31.456 341.18 32.128C341.852 32.8 342.188 33.664 342.188 34.72V102.4C342.188 103.36 341.852 104.224 341.18 104.992C340.508 105.664 339.644 106 338.588 106H321.596ZM385.839 106C384.495 106 383.439 105.712 382.671 105.136C381.999 104.464 381.423 103.552 380.943 102.4L353.727 35.584L353.439 34.288C353.439 33.424 353.727 32.704 354.303 32.128C354.975 31.456 355.791 31.12 356.751 31.12H373.023C375.135 31.12 376.527 32.128 377.199 34.144L393.471 78.352L409.887 34.144C410.559 32.128 411.951 31.12 414.063 31.12H430.335C431.199 31.12 431.967 31.456 432.639 32.128C433.311 32.704 433.647 33.424 433.647 34.288L433.359 35.584L406.143 102.4C405.663 103.552 405.039 104.464 404.271 105.136C403.503 105.712 402.447 106 401.103 106H385.839ZM463.929 107.44C458.841 107.44 454.185 106.48 449.961 104.56C445.833 102.544 442.569 99.856 440.169 96.496C437.865 93.04 436.713 89.248 436.713 85.12C436.713 78.496 439.401 73.168 444.777 69.136C450.249 65.104 457.737 62.32 467.241 60.784L485.241 58.048V56.032C485.241 52.384 484.473 49.696 482.937 47.968C481.401 46.24 478.809 45.376 475.161 45.376C472.953 45.376 471.129 45.76 469.689 46.528C468.249 47.296 466.761 48.352 465.225 49.696C463.881 50.848 462.873 51.616 462.201 52C461.913 52.768 461.385 53.152 460.617 53.152H444.921C443.961 53.152 443.145 52.864 442.473 52.288C441.897 51.616 441.657 50.848 441.753 49.984C441.849 47.392 443.097 44.512 445.497 41.344C447.993 38.176 451.737 35.44 456.729 33.136C461.817 30.832 468.057 29.68 475.449 29.68C487.257 29.68 495.993 32.32 501.657 37.6C507.321 42.784 510.153 49.792 510.153 58.624V102.4C510.153 103.36 509.817 104.224 509.145 104.992C508.473 105.664 507.609 106 506.553 106H489.849C488.889 106 488.025 105.664 487.257 104.992C486.585 104.224 486.249 103.36 486.249 102.4V97.36C484.137 100.336 481.161 102.784 477.321 104.704C473.577 106.528 469.113 107.44 463.929 107.44ZM470.697 91.024C475.113 91.024 478.665 89.584 481.353 86.704C484.137 83.824 485.529 79.6 485.529 74.032V72.016L473.289 74.176C464.649 75.712 460.329 78.736 460.329 83.248C460.329 85.648 461.337 87.568 463.353 89.008C465.369 90.352 467.817 91.024 470.697 91.024ZM530.002 106C529.042 106 528.178 105.664 527.41 104.992C526.738 104.224 526.402 103.36 526.402 102.4V7.35999C526.402 6.30399 526.738 5.44 527.41 4.768C528.178 4.096 529.042 3.75999 530.002 3.75999H546.994C548.05 3.75999 548.914 4.096 549.586 4.768C550.258 5.44 550.594 6.30399 550.594 7.35999V102.4C550.594 103.456 550.258 104.32 549.586 104.992C548.914 105.664 548.05 106 546.994 106H530.002Z" fill="black"/>
</svg>
