<svg width="530" height="108" viewBox="0 0 530 108" fill="none" xmlns="http://www.w3.org/2000/svg">
<path d="M3.68 106C2.72 106 1.856 105.664 1.088 104.992C0.416 104.224 0.08 103.36 0.08 102.4V8.8C0.08 7.74399 0.416 6.87999 1.088 6.208C1.856 5.53599 2.72 5.19999 3.68 5.19999H69.92C70.976 5.19999 71.84 5.53599 72.512 6.208C73.184 6.87999 73.52 7.74399 73.52 8.8V23.344C73.52 24.304 73.184 25.168 72.512 25.936C71.84 26.608 70.976 26.944 69.92 26.944H25.424V48.112H67.04C68.096 48.112 68.96 48.496 69.632 49.264C70.304 49.936 70.64 50.8 70.64 51.856V66.256C70.64 67.216 70.304 68.08 69.632 68.848C68.96 69.52 68.096 69.856 67.04 69.856H25.424V102.4C25.424 103.456 25.088 104.32 24.416 104.992C23.744 105.664 22.88 106 21.824 106H3.68ZM90.9676 20.32C89.9116 20.32 89.0476 19.984 88.3756 19.312C87.7036 18.64 87.3676 17.776 87.3676 16.72V3.75999C87.3676 2.704 87.7036 1.84 88.3756 1.16799C89.0476 0.495996 89.9116 0.159998 90.9676 0.159998H108.248C109.304 0.159998 110.168 0.495996 110.84 1.16799C111.512 1.84 111.848 2.704 111.848 3.75999V16.72C111.848 17.776 111.512 18.64 110.84 19.312C110.168 19.984 109.304 20.32 108.248 20.32H90.9676ZM91.1116 106C90.0556 106 89.1916 105.664 88.5196 104.992C87.8476 104.32 87.5116 103.456 87.5116 102.4V34.72C87.5116 33.664 87.8476 32.8 88.5196 32.128C89.1916 31.456 90.0556 31.12 91.1116 31.12H108.104C109.16 31.12 110.024 31.456 110.696 32.128C111.368 32.8 111.704 33.664 111.704 34.72V102.4C111.704 103.36 111.368 104.224 110.696 104.992C110.024 105.664 109.16 106 108.104 106H91.1116ZM132.315 106C131.259 106 130.395 105.664 129.723 104.992C129.051 104.32 128.715 103.456 128.715 102.4V34.72C128.715 33.664 129.051 32.8 129.723 32.128C130.395 31.456 131.259 31.12 132.315 31.12H148.875C149.931 31.12 150.795 31.456 151.467 32.128C152.235 32.8 152.619 33.664 152.619 34.72V40.192C155.211 37.024 158.523 34.48 162.555 32.56C166.683 30.64 171.339 29.68 176.523 29.68C184.971 29.68 191.835 32.56 197.115 38.32C202.395 43.984 205.035 51.952 205.035 62.224V102.4C205.035 103.36 204.699 104.224 204.027 104.992C203.355 105.664 202.491 106 201.435 106H183.291C182.331 106 181.467 105.664 180.699 104.992C180.027 104.224 179.691 103.36 179.691 102.4V63.088C179.691 58.576 178.587 55.12 176.379 52.72C174.171 50.224 171.003 48.976 166.875 48.976C162.843 48.976 159.675 50.224 157.371 52.72C155.067 55.12 153.915 58.576 153.915 63.088V102.4C153.915 103.36 153.579 104.224 152.907 104.992C152.235 105.664 151.371 106 150.315 106H132.315ZM249.182 107.44C239.774 107.44 232.43 104.512 227.15 98.656C221.966 92.704 219.134 84.352 218.654 73.6L218.51 68.56L218.654 63.376C219.038 53.008 221.87 44.8 227.15 38.752C232.526 32.704 239.87 29.68 249.182 29.68C257.918 29.68 264.974 32.512 270.35 38.176V7.35999C270.35 6.30399 270.686 5.44 271.358 4.768C272.03 4.096 272.894 3.75999 273.95 3.75999H291.518C292.574 3.75999 293.438 4.096 294.11 4.768C294.782 5.44 295.118 6.30399 295.118 7.35999V102.4C295.118 103.36 294.782 104.224 294.11 104.992C293.438 105.664 292.574 106 291.518 106H275.246C274.286 106 273.422 105.664 272.654 104.992C271.982 104.224 271.646 103.36 271.646 102.4V97.792C266.366 104.224 258.878 107.44 249.182 107.44ZM257.102 88.144C261.422 88.144 264.638 86.8 266.75 84.112C268.862 81.328 270.062 77.776 270.35 73.456C270.446 72.208 270.494 70.384 270.494 67.984C270.494 65.68 270.446 63.904 270.35 62.656C270.158 58.72 268.958 55.456 266.75 52.864C264.542 50.272 261.326 48.976 257.102 48.976C252.59 48.976 249.326 50.32 247.31 53.008C245.39 55.696 244.286 59.392 243.998 64.096C243.902 65.056 243.854 66.544 243.854 68.56C243.854 70.576 243.902 72.064 243.998 73.024C244.286 77.728 245.39 81.424 247.31 84.112C249.326 86.8 252.59 88.144 257.102 88.144ZM346.65 107.44C335.13 107.44 326.058 104.32 319.434 98.08C312.81 91.84 309.354 82.768 309.066 70.864V65.824C309.45 54.496 312.954 45.664 319.578 39.328C326.298 32.896 335.274 29.68 346.506 29.68C354.666 29.68 361.53 31.36 367.098 34.72C372.762 37.984 376.986 42.496 379.77 48.256C382.65 54.016 384.09 60.64 384.09 68.128V71.584C384.09 72.544 383.754 73.408 383.082 74.176C382.41 74.848 381.546 75.184 380.49 75.184H334.41V76.192C334.602 80.704 335.706 84.352 337.722 87.136C339.738 89.92 342.666 91.312 346.506 91.312C348.906 91.312 350.874 90.832 352.41 89.872C353.946 88.816 355.338 87.568 356.586 86.128C357.45 85.072 358.122 84.448 358.602 84.256C359.178 83.968 360.042 83.824 361.194 83.824H379.05C379.914 83.824 380.634 84.112 381.21 84.688C381.882 85.168 382.218 85.84 382.218 86.704C382.218 89.2 380.778 92.08 377.898 95.344C375.114 98.608 371.034 101.44 365.658 103.84C360.282 106.24 353.946 107.44 346.65 107.44ZM358.746 60.928V60.64C358.746 55.936 357.642 52.24 355.434 49.552C353.322 46.768 350.346 45.376 346.506 45.376C342.762 45.376 339.786 46.768 337.578 49.552C335.466 52.24 334.41 55.936 334.41 60.64V60.928H358.746ZM401.19 106C400.134 106 399.27 105.664 398.598 104.992C397.926 104.32 397.59 103.456 397.59 102.4V34.72C397.59 33.664 397.926 32.8 398.598 32.128C399.27 31.456 400.134 31.12 401.19 31.12H417.75C418.806 31.12 419.67 31.504 420.342 32.272C421.11 32.944 421.494 33.76 421.494 34.72V40.48C426.774 34.24 433.878 31.12 442.806 31.12H449.142C450.198 31.12 451.062 31.456 451.734 32.128C452.406 32.8 452.742 33.664 452.742 34.72V49.552C452.742 50.512 452.406 51.376 451.734 52.144C451.062 52.816 450.198 53.152 449.142 53.152H435.174C431.238 53.152 428.166 54.256 425.958 56.464C423.846 58.576 422.79 61.6 422.79 65.536V102.4C422.79 103.456 422.406 104.32 421.638 104.992C420.966 105.664 420.102 106 419.046 106H401.19ZM493.796 107.44C486.02 107.44 479.492 106.336 474.212 104.128C469.028 101.92 465.188 99.28 462.692 96.208C460.196 93.136 458.948 90.4 458.948 88C458.948 87.04 459.284 86.272 459.956 85.696C460.724 85.024 461.54 84.688 462.404 84.688H478.82C479.396 84.688 479.924 84.928 480.404 85.408C481.556 86.176 482.42 86.8 482.996 87.28C485.108 88.816 486.932 89.968 488.468 90.736C490.1 91.408 492.068 91.744 494.372 91.744C497.156 91.744 499.412 91.216 501.14 90.16C502.964 89.008 503.876 87.424 503.876 85.408C503.876 83.776 503.396 82.48 502.436 81.52C501.572 80.56 499.844 79.648 497.252 78.784C494.66 77.824 490.724 76.816 485.444 75.76C477.476 74.128 471.332 71.488 467.012 67.84C462.788 64.096 460.676 59.104 460.676 52.864C460.676 48.928 461.924 45.184 464.42 41.632C466.916 38.08 470.612 35.2 475.508 32.992C480.5 30.784 486.404 29.68 493.22 29.68C500.036 29.68 505.988 30.736 511.076 32.848C516.164 34.96 520.004 37.552 522.596 40.624C525.284 43.6 526.628 46.336 526.628 48.832C526.628 49.696 526.292 50.464 525.62 51.136C525.044 51.808 524.324 52.144 523.46 52.144H508.484C507.716 52.144 506.996 51.904 506.324 51.424C505.076 50.752 503.972 50.032 503.012 49.264C501.38 48.016 499.844 47.056 498.404 46.384C496.964 45.712 495.188 45.376 493.076 45.376C490.58 45.376 488.564 45.952 487.028 47.104C485.588 48.256 484.868 49.744 484.868 51.568C484.868 53.008 485.252 54.208 486.02 55.168C486.884 56.128 488.612 57.088 491.204 58.048C493.892 58.912 497.828 59.824 503.012 60.784C512.324 62.416 519.092 65.296 523.316 69.424C527.636 73.552 529.796 78.4 529.796 83.968C529.796 91.072 526.628 96.784 520.292 101.104C513.956 105.328 505.124 107.44 493.796 107.44Z" fill="black"/>
</svg>
